<?xml version="1.0" standalone="no"?>
<!DOCTYPE svg PUBLIC "-//W3C//DTD SVG 20010904//EN"
 "http://www.w3.org/TR/2001/REC-SVG-20010904/DTD/svg10.dtd">
<svg version="1.0" xmlns="http://www.w3.org/2000/svg"
 width="960.000000pt" height="960.000000pt" viewBox="0 0 960.000000 960.000000"
 preserveAspectRatio="xMidYMid meet">
<metadata>
Created by potrace 1.16, written by Peter Selinger 2001-2019
</metadata>
<g transform="translate(0.000000,960.000000) scale(0.100000,-0.100000)"
fill="#000000" stroke="none">
<path d="M4605 9420 c-740 -30 -1523 -267 -2171 -658 -843 -509 -1503 -1269
-1882 -2167 -248 -587 -367 -1193 -361 -1842 2 -139 0 -256 -4 -260 -4 -3 -7
141 -7 322 0 181 -3 326 -6 323 -12 -13 -4 -626 11 -783 119 -1278 755 -2434
1779 -3232 643 -502 1427 -829 2247 -938 298 -40 850 -45 1144 -11 290 34 596
100 884 191 552 174 1119 482 1551 844 523 438 917 933 1209 1521 259 522 407
1035 467 1625 21 213 22 683 0 891 -77 750 -311 1427 -706 2049 -439 690
-1085 1277 -1810 1644 -128 65 -409 191 -426 191 -4 0 -37 12 -73 26 -36 15
-87 28 -112 30 -26 2 -73 12 -105 23 -367 121 -776 192 -1214 211 -124 5 -227
9 -230 8 -3 -1 -86 -5 -185 -8z m660 -156 c1406 -139 2658 -937 3389 -2159 90
-150 257 -486 311 -625 136 -348 222 -663 274 -1005 30 -199 43 -348 51 -605
l7 -235 3 165 c2 145 4 158 12 105 9 -57 5 -294 -8 -470 -16 -235 -94 -689
-143 -840 -5 -16 -21 -70 -36 -120 -36 -120 -67 -212 -110 -320 -19 -49 -35
-96 -35 -102 0 -7 -4 -13 -10 -13 -5 0 -10 -5 -10 -11 0 -21 -133 -312 -150
-329 -3 -3 -22 -39 -43 -80 -67 -130 -254 -422 -345 -540 -175 -225 -292 -358
-459 -520 -114 -111 -238 -224 -288 -263 -39 -30 -57 -47 -48 -47 9 0 81 53
93 68 3 4 34 32 70 62 67 56 324 310 395 390 89 100 154 180 225 275 41 55 77
102 80 105 12 12 181 270 212 323 85 148 113 201 174 327 91 186 120 249 135
293 11 30 15 34 20 20 3 -10 6 3 5 28 -1 26 5 53 13 63 13 16 25 46 61 164 14
45 36 59 28 17 -3 -14 -1 -25 3 -25 5 0 6 -7 3 -15 -4 -8 -12 -15 -18 -15 -17
0 -15 -105 2 -122 10 -10 11 -6 6 22 -5 33 -5 34 10 16 9 -11 16 -15 16 -9 0
6 3 20 6 30 5 15 4 15 -5 3 -20 -28 -11 -2 19 57 16 31 30 69 30 84 0 15 7 32
15 39 11 9 14 23 10 44 -5 23 -4 27 4 16 6 -8 11 -10 11 -4 0 6 -7 17 -15 24
-8 7 -15 20 -15 29 1 14 2 14 11 -1 13 -23 29 -23 29 0 0 10 4 22 9 28 5 5 16
41 24 79 9 39 25 108 37 155 11 47 21 94 20 105 0 11 6 47 14 80 21 87 35 176
46 289 12 113 23 145 15 41 -9 -128 -54 -432 -75 -505 -5 -19 -23 -93 -41
-165 -120 -495 -348 -1003 -643 -1439 -45 -65 -88 -128 -96 -140 -82 -119
-316 -392 -460 -537 -461 -464 -947 -786 -1575 -1044 -218 -90 -573 -194 -835
-245 -453 -88 -1059 -104 -1509 -40 -887 126 -1683 481 -2366 1055 -169 142
-450 423 -535 535 -14 18 -32 40 -40 48 -8 8 -36 42 -62 76 -26 34 -53 68 -60
76 -8 9 -34 45 -58 80 -25 36 -50 71 -57 77 -6 7 -21 29 -34 50 -13 21 -29 44
-35 51 -7 6 -32 46 -56 88 -24 41 -53 92 -65 112 -29 48 -47 85 -45 94 1 5 -3
8 -9 8 -6 0 -8 9 -4 23 4 15 3 18 -3 9 -7 -10 -15 -3 -31 28 -11 22 -21 47
-21 55 0 7 -6 20 -14 27 -17 18 -56 97 -56 115 0 8 -4 12 -9 9 -5 -4 -7 4 -3
16 3 14 2 19 -6 14 -13 -8 -16 3 -12 43 1 14 -2 21 -9 17 -7 -4 -11 1 -11 14
0 12 -4 19 -9 16 -5 -4 -7 3 -4 14 3 13 0 20 -8 20 -9 0 -15 13 -16 33 -2 47
-22 95 -32 78 -6 -9 -11 5 -16 39 -5 34 -3 56 4 63 6 6 11 41 11 79 0 53 -4
69 -17 78 -15 9 -14 10 6 4 16 -4 21 -3 17 5 -4 6 -2 11 3 11 6 0 11 7 11 15
0 8 -5 15 -11 15 -6 0 -8 7 -5 16 7 17 -15 94 -26 94 -5 0 -8 -5 -8 -12 0 -6
-3 -8 -6 -5 -4 4 -2 13 4 20 11 13 10 21 -23 142 -17 61 -24 97 -30 155 -4 41
-3 39 10 -15 8 -33 24 -89 35 -125 11 -36 20 -73 20 -82 0 -10 4 -27 9 -40 5
-13 14 -43 21 -68 7 -25 15 -52 19 -60 4 -8 16 -42 26 -75 10 -33 22 -64 27
-69 4 -6 8 -16 8 -24 0 -8 6 -28 14 -45 8 -18 27 -63 42 -102 14 -38 35 -89
46 -112 11 -25 16 -54 13 -70 -4 -20 -3 -23 3 -9 7 15 23 -12 82 -130 72 -143
145 -274 224 -397 32 -50 36 -61 24 -75 -11 -15 -11 -15 3 -4 14 10 21 4 54
-45 34 -53 142 -201 155 -213 13 -12 70 -88 70 -93 0 -4 15 -21 33 -39 17 -18
61 -67 96 -108 117 -136 345 -356 515 -495 27 -22 55 -46 62 -52 7 -7 16 -13
21 -13 9 0 -9 17 -112 105 -232 198 -496 481 -686 735 -290 388 -531 855 -683
1325 -158 487 -235 1079 -208 1584 36 652 178 1206 452 1766 356 729 875 1321
1550 1772 664 443 1439 696 2260 737 131 6 469 -4 625 -20z m1230 -142 c-3 -3
-11 0 -18 7 -9 10 -8 11 6 5 10 -3 15 -9 12 -12z m-4884 -1165 c-10 -9 -11 -8
-5 6 3 10 9 15 12 12 3 -3 0 -11 -7 -18z m-41 -40 c0 -2 -12 -14 -27 -28 l-28
-24 24 28 c23 25 31 32 31 24z m-100 -111 c0 -2 -8 -10 -17 -17 -16 -13 -17
-12 -4 4 13 16 21 21 21 13z m-100 -120 c0 -2 -8 -10 -17 -17 -16 -13 -17 -12
-4 4 13 16 21 21 21 13z m-799 -1429 c-10 -9 -11 -8 -5 6 3 10 9 15 12 12 3
-3 0 -11 -7 -18z m-8 -37 c-3 -12 -8 -19 -11 -16 -5 6 5 36 12 36 2 0 2 -9 -1
-20z m-156 -612 c-3 -7 -5 -2 -5 12 0 14 2 19 5 13 2 -7 2 -19 0 -25z m8990
-110 c-3 -8 -6 -5 -6 6 -1 11 2 17 5 13 3 -3 4 -12 1 -19z m-9030 -110 c-3 -8
-6 -5 -6 6 -1 11 2 17 5 13 3 -3 4 -12 1 -19z m0 -50 c-3 -8 -6 -5 -6 6 -1 11
2 17 5 13 3 -3 4 -12 1 -19z m-10 -90 c-3 -7 -5 -2 -5 12 0 14 2 19 5 13 2 -7
2 -19 0 -25z m9070 -20 c-3 -8 -6 -5 -6 6 -1 11 2 17 5 13 3 -3 4 -12 1 -19z
m-9080 -85 c-3 -10 -5 -4 -5 12 0 17 2 24 5 18 2 -7 2 -21 0 -30z m9090 5 c-3
-8 -6 -5 -6 6 -1 11 2 17 5 13 3 -3 4 -12 1 -19z m-9100 -110 c-3 -7 -5 -2 -5
12 0 14 2 19 5 13 2 -7 2 -19 0 -25z m9110 -55 c-2 -16 -4 -5 -4 22 0 28 2 40
4 28 2 -13 2 -35 0 -50z m-140 5 c-3 -8 -6 -5 -6 6 -1 11 2 17 5 13 3 -3 4
-12 1 -19z m140 -375 c-2 -21 -4 -4 -4 37 0 41 2 58 4 38 2 -21 2 -55 0 -75z
m-9103 -98 c4 -54 4 -97 1 -94 -3 3 -8 50 -11 105 -4 54 -4 97 -1 94 2 -3 8
-50 11 -105z m9093 -52 c-2 -21 -4 -6 -4 32 0 39 2 55 4 38 2 -18 2 -50 0 -70z
m-9240 -35 c-2 -13 -4 -5 -4 17 -1 22 1 32 4 23 2 -10 2 -28 0 -40z m160 -95
c-2 -16 -4 -5 -4 22 0 28 2 40 4 28 2 -13 2 -35 0 -50z m-150 0 c-3 -10 -5 -2
-5 17 0 19 2 27 5 18 2 -10 2 -26 0 -35z m160 -100 c-2 -16 -4 -5 -4 22 0 28
2 40 4 28 2 -13 2 -35 0 -50z m-150 20 c-3 -10 -5 -4 -5 12 0 17 2 24 5 18 2
-7 2 -21 0 -30z m6 -43 c3 -11 1 -18 -4 -14 -5 3 -9 12 -9 20 0 20 7 17 13 -6z
m161 -59 c3 -24 15 -95 27 -158 12 -63 19 -117 15 -120 -10 -11 -15 1 -20 52
-3 28 -12 85 -21 128 -14 74 -20 156 -11 146 3 -2 7 -24 10 -48z m-144 -2 c0
-5 -4 -9 -10 -9 -5 0 -10 7 -10 16 0 8 5 12 10 9 6 -3 10 -10 10 -16z m-3 -61
c-3 -8 -6 -5 -6 6 -1 11 2 17 5 13 3 -3 4 -12 1 -19z m10 -50 c-3 -8 -6 -5 -6
6 -1 11 2 17 5 13 3 -3 4 -12 1 -19z m9111 -20 c-2 -14 -11 -24 -23 -25 -11
-2 -14 0 -7 3 6 3 10 10 6 15 -7 11 4 29 17 29 6 0 9 -10 7 -22z m-51 -250
c-3 -8 -6 -5 -6 6 -1 11 2 17 5 13 3 -3 4 -12 1 -19z m-8889 -29 c-3 -8 -7 -3
-11 10 -4 17 -3 21 5 13 5 -5 8 -16 6 -23z m8776 -146 c-4 -10 -7 -31 -6 -48
1 -20 -1 -25 -7 -17 -5 9 -10 -2 -13 -33 -6 -45 -13 -63 -23 -53 -3 2 4 36 16
74 11 38 21 75 21 82 1 6 6 12 11 12 5 0 6 -8 1 -17z m-8799 -53 c3 -5 -1 -10
-9 -10 -9 0 -16 5 -16 10 0 6 4 10 9 10 6 0 13 -4 16 -10z m111 -117 c-11 -11
-17 4 -9 23 7 18 8 18 11 1 2 -10 1 -21 -2 -24z m-26 -13 c0 -5 -2 -10 -4 -10
-3 0 -8 5 -11 10 -3 6 -1 10 4 10 6 0 11 -4 11 -10z m-20 -51 c0 -5 4 -7 10
-4 6 3 7 -1 4 -10 -4 -8 -1 -22 5 -29 9 -11 9 -15 -1 -18 -7 -3 -19 8 -25 25
-16 35 -16 47 -3 47 6 0 10 -5 10 -11z"/>
<path d="M5095 9074 c-22 -9 -58 -19 -79 -22 -37 -7 -41 -11 -62 -63 -21 -52
-74 -141 -74 -125 0 4 9 25 20 46 11 22 17 40 14 40 -4 0 0 8 8 18 17 20 41
83 33 90 -4 5 -55 -101 -55 -115 0 -3 -11 -29 -24 -57 -36 -78 -166 -383 -166
-391 0 -4 7 -2 15 5 13 11 14 10 9 -6 -4 -10 -14 -27 -22 -36 -19 -23 -46 -24
-38 -2 3 9 -29 90 -78 192 -46 97 -109 229 -139 292 -61 130 -79 153 -97 121
-12 -23 -64 -28 -116 -12 -62 20 -84 22 -84 8 0 -7 17 -18 38 -23 68 -17 71
-32 74 -399 2 -249 6 -319 16 -318 6 2 12 -3 12 -11 0 -17 -51 -36 -97 -36
-23 0 -33 -4 -30 -12 3 -10 37 -13 123 -13 138 0 154 2 154 21 0 10 -10 14
-29 12 -37 -3 -67 23 -75 65 -10 56 -9 501 1 504 9 3 39 -51 113 -212 21 -44
65 -138 99 -208 33 -71 61 -132 61 -136 0 -16 36 -40 48 -32 13 8 78 155 162
366 15 39 47 111 70 160 41 86 43 89 51 61 4 -16 9 -141 10 -278 1 -208 4
-246 15 -237 11 9 14 8 14 -5 0 -21 -57 -46 -107 -46 -34 -1 -36 -2 -20 -14
14 -11 53 -13 173 -10 85 2 159 6 164 9 20 12 9 25 -19 25 -17 0 -42 10 -58
24 l-28 24 -3 328 c-2 180 -1 338 2 351 5 16 18 26 50 35 24 7 45 18 47 23 6
16 -53 16 -96 -1z m-241 -294 c-17 -33 -27 -40 -17 -12 6 17 23 42 28 42 2 0
-3 -13 -11 -30z m-63 -143 c-10 -9 -11 -8 -5 6 3 10 9 15 12 12 3 -3 0 -11 -7
-18z m-17 -42 c-4 -8 -8 -15 -10 -15 -2 0 -4 7 -4 15 0 8 4 15 10 15 5 0 7 -7
4 -15z"/>
<path d="M5650 8995 c10 -13 9 -15 -9 -15 -38 0 -90 -28 -126 -67 -19 -21 -35
-43 -35 -50 0 -6 -5 -15 -11 -19 -8 -4 -9 3 -4 25 9 40 0 40 -21 -1 -22 -43
-14 -144 15 -191 11 -19 73 -86 136 -148 126 -124 161 -178 152 -235 -6 -37 8
-47 18 -13 4 11 9 18 12 15 12 -12 -20 -73 -50 -93 -44 -30 -122 -42 -130 -20
-3 9 -25 21 -48 27 -27 8 -58 28 -89 59 -49 49 -58 74 -63 170 -2 33 -27 58
-27 27 0 -9 -4 -16 -9 -16 -5 0 -16 -35 -25 -77 -9 -43 -22 -95 -28 -116 -14
-48 1 -70 30 -44 24 22 34 21 79 -5 106 -60 201 -86 267 -72 60 12 129 57 157
103 38 59 45 115 24 187 -16 54 -27 68 -150 189 -139 138 -165 173 -165 227 0
38 5 46 44 76 45 34 111 30 172 -10 59 -41 84 -87 92 -175 5 -51 11 -69 23
-71 13 -2 21 17 38 95 12 54 26 113 32 130 17 56 -5 71 -33 23 -17 -30 -52
-43 -42 -16 7 19 -99 94 -145 101 -20 3 -49 8 -65 10 -24 4 -27 3 -16 -10z
m-283 -632 c-3 -10 -5 -2 -5 17 0 19 2 27 5 18 2 -10 2 -26 0 -35z m-10 -45
c-3 -8 -6 -5 -6 6 -1 11 2 17 5 13 3 -3 4 -12 1 -19z"/>
<path d="M3831 8947 c-7 -18 -18 -27 -33 -27 -59 -1 -290 -64 -335 -91 -17
-11 -49 -20 -70 -20 -66 0 -133 -10 -133 -20 0 -5 20 -9 45 -9 35 0 48 -5 60
-23 14 -22 42 -114 80 -267 9 -36 20 -78 25 -95 11 -41 68 -265 72 -290 2 -11
11 -19 19 -17 26 4 -46 -49 -73 -55 -16 -3 -28 -12 -28 -20 0 -11 6 -14 23 -9
46 14 206 57 316 87 63 16 122 34 130 38 9 5 35 12 58 16 72 11 80 26 86 138
3 77 1 97 -9 97 -8 0 -14 -7 -14 -15 0 -8 -4 -15 -9 -15 -5 0 -12 -16 -15 -36
-4 -19 -9 -43 -12 -52 -2 -9 2 -3 10 13 20 40 21 6 1 -40 -10 -26 -26 -40 -57
-54 -51 -22 -220 -71 -243 -71 -31 0 -60 53 -88 160 -45 169 -46 175 -37 184
15 15 194 56 219 50 27 -6 57 -36 66 -65 4 -11 10 -19 14 -19 14 0 33 29 26
40 -3 5 -19 61 -34 122 -35 140 -48 149 -64 45 -3 -22 -2 -25 9 -16 11 9 14 8
14 -4 0 -30 -36 -55 -110 -75 -118 -32 -145 -36 -158 -19 -11 13 -82 271 -82
296 0 4 25 14 56 20 32 7 82 22 112 32 56 19 107 24 137 13 8 -4 30 -27 47
-51 26 -38 32 -43 44 -31 12 12 10 25 -12 88 -31 91 -40 102 -53 67z"/>
<path d="M6540 8701 c0 -3 16 -19 35 -34 44 -35 44 -54 0 -146 -19 -40 -35
-78 -34 -84 0 -7 18 25 39 69 32 68 60 110 60 91 0 -19 -280 -588 -302 -614
-13 -17 -70 -17 -86 0 -17 16 -62 17 -62 1 0 -6 17 -19 38 -28 20 -9 84 -41
141 -71 58 -30 110 -55 118 -55 22 0 15 29 -12 46 -40 26 -47 47 -31 91 15 43
103 224 115 236 4 4 26 -6 48 -22 137 -99 241 -105 339 -19 95 84 99 241 8
332 -81 81 -414 248 -414 207z m264 -174 c60 -34 79 -66 79 -134 0 -32 -7 -77
-15 -100 -9 -24 -14 -43 -12 -43 8 0 54 81 55 97 1 16 2 16 6 1 2 -9 -9 -45
-26 -81 -35 -78 -79 -107 -158 -106 -31 0 -41 3 -30 8 15 5 9 11 -31 30 -27
13 -61 33 -75 45 l-26 21 75 143 c84 158 87 160 158 119z"/>
<path d="M2990 8660 c0 -14 -21 -29 -84 -60 -46 -22 -101 -56 -123 -75 -22
-19 -74 -50 -116 -69 -41 -19 -101 -53 -131 -76 -40 -29 -63 -39 -76 -35 -29
9 -26 -15 15 -96 44 -87 61 -86 57 2 -3 61 -2 66 29 97 34 34 97 72 122 72 7
0 22 -17 34 -37 11 -21 41 -76 68 -123 26 -47 68 -123 93 -170 25 -47 53 -96
62 -110 43 -65 80 -143 80 -170 0 -21 -8 -36 -30 -52 -31 -23 -38 -38 -19 -38
7 0 49 23 95 50 46 28 85 50 88 50 3 0 27 14 55 31 50 31 67 59 36 59 -8 0
-15 -4 -15 -9 0 -14 -37 -23 -60 -16 -21 7 -61 61 -100 135 -13 25 -47 86 -76
135 -128 225 -184 327 -184 338 0 23 93 70 146 75 46 4 54 1 86 -27 65 -57 77
-33 26 51 -52 87 -78 110 -78 68z"/>
<path d="M6510 8396 c-5 -15 -15 -36 -20 -47 -6 -10 -7 -19 -2 -19 12 0 47 78
39 86 -4 4 -11 -5 -17 -20z"/>
<path d="M6466 8298 c-18 -28 -48 -98 -42 -98 3 0 18 27 34 60 31 62 34 77 8
38z"/>
<path d="M7298 8273 c-24 -6 -23 -15 7 -43 17 -16 25 -34 25 -58 0 -29 2 -33
15 -22 12 10 15 9 15 -5 0 -19 -325 -430 -397 -502 -23 -24 -50 -43 -58 -43
-9 0 -27 12 -41 28 -25 26 -74 38 -74 17 1 -5 20 -26 44 -45 24 -19 122 -104
220 -188 97 -84 184 -157 194 -163 15 -9 34 0 110 51 51 34 92 69 92 76 0 18
-15 18 -34 -1 -19 -20 -116 -65 -136 -64 -10 0 -11 2 -2 6 19 7 14 21 -10 29
-58 18 -225 153 -234 189 -3 13 0 33 6 46 15 26 317 397 368 452 41 42 63 46
110 17 38 -23 65 -26 60 -6 -3 13 -253 238 -260 235 -2 -1 -11 -3 -20 -6z"/>
<path d="M2180 8181 c0 -5 4 -21 9 -34 13 -33 -5 -48 -91 -76 -55 -18 -76 -32
-112 -72 -25 -28 -50 -48 -55 -45 -14 9 -41 -69 -41 -118 0 -61 36 -124 93
-163 70 -47 114 -50 280 -19 165 30 206 32 253 10 47 -22 67 -65 62 -126 -4
-42 -3 -46 10 -36 13 11 14 10 4 -8 -21 -39 -100 -100 -158 -122 -59 -23 -136
-31 -101 -11 16 10 13 14 -30 36 -26 14 -57 33 -67 42 -13 11 -20 13 -23 4 -2
-7 -11 -9 -20 -6 -25 10 -13 -10 67 -107 76 -92 102 -107 108 -60 2 19 18 33
65 59 170 94 226 158 235 267 8 102 -63 204 -159 225 -47 11 -61 5 -36 -14 15
-10 8 -12 -40 -15 -32 -1 -78 -7 -103 -12 -127 -26 -157 -30 -217 -30 -55 0
-64 2 -54 14 10 11 8 16 -7 21 -41 13 -72 55 -72 100 0 131 176 201 295 117
46 -32 85 -42 85 -21 0 9 -65 93 -150 192 -16 19 -30 22 -30 8z m-247 -271
c-3 -12 -8 -19 -11 -16 -5 6 5 36 12 36 2 0 2 -9 -1 -20z"/>
<path d="M6400 8171 c-6 -12 -7 -21 -1 -21 10 0 24 30 17 37 -2 3 -9 -5 -16
-16z"/>
<path d="M2160 8161 c0 -5 5 -13 10 -16 6 -3 10 -2 10 4 0 5 -4 13 -10 16 -5
3 -10 2 -10 -4z"/>
<path d="M6361 8091 c-29 -56 -26 -65 4 -12 14 24 23 46 21 48 -3 3 -14 -13
-25 -36z"/>
<path d="M4595 8019 c-560 -33 -1134 -234 -1610 -564 -393 -273 -745 -655
-970 -1056 -282 -501 -426 -1037 -429 -1606 0 -105 -3 -189 -6 -186 -3 2 -8
75 -11 161 l-5 157 -2 -135 c-7 -637 187 -1288 544 -1824 239 -359 572 -689
936 -929 694 -455 1571 -627 2388 -466 538 106 994 319 1440 673 97 77 311
287 409 401 450 523 717 1152 781 1840 13 141 13 473 0 606 -41 410 -154 808
-331 1160 -377 754 -1052 1349 -1832 1615 -102 35 -134 42 -82 19 40 -19 15
-19 -32 0 -65 25 -322 83 -468 105 -77 12 -221 25 -320 30 -200 10 -215 10
-400 -1z m1280 -159 c3 -6 -1 -7 -9 -4 -18 7 -21 14 -7 14 6 0 13 -4 16 -10z
m-1075 -980 c0 -20 7 -20 1006 -20 800 0 1005 -3 1002 -12 -4 -10 -415 -13
-2013 -13 -1598 0 -2009 3 -2012 13 -4 9 199 12 990 12 986 0 995 0 1000 20 3
11 10 20 16 20 6 0 11 -9 11 -20z m-114 -259 c-20 -39 -36 -77 -36 -86 0 -13
119 -15 1086 -15 963 0 1085 -2 1074 -15 -11 -13 -252 -15 -2016 -17 -2029 -3
-2014 -3 -2014 28 0 2 411 4 914 4 l914 0 41 87 c40 83 62 113 69 94 2 -5 -13
-41 -32 -80z m-116 -246 c0 -3 -16 -40 -36 -82 -20 -43 -36 -81 -37 -85 -3 -9
660 -16 1577 -17 494 -1 747 -4 740 -11 -6 -6 -714 -11 -2022 -12 -1625 -2
-2012 -1 -2010 10 2 10 172 13 838 15 l835 2 44 93 c25 50 51 92 58 92 7 0 13
-2 13 -5z m-186 -401 c-19 -41 -34 -79 -34 -85 0 -5 472 -10 1235 -11 978 -2
1233 -6 1227 -15 -6 -10 -434 -13 -2020 -15 -1911 -3 -2012 -2 -2012 15 0 16
43 17 765 17 l766 0 34 77 c39 84 53 105 65 98 5 -3 -7 -39 -26 -81z m-2507
-236 c-3 -8 -6 -5 -6 6 -1 11 2 17 5 13 3 -3 4 -12 1 -19z m2393 -2 c0 -3 -16
-39 -35 -82 -19 -42 -35 -80 -35 -85 0 -5 568 -9 1310 -9 1235 0 1359 -2 1298
-25 -7 -3 -916 -6 -2021 -7 -1906 -3 -2007 -2 -2007 15 0 16 40 17 690 17
l690 0 30 68 c37 79 57 112 70 112 6 0 10 -2 10 -4z m1538 -263 c-549 -2
-1447 -2 -1995 0 -549 1 -100 2 997 2 1097 0 1546 -1 998 -2z m-4011 -35 c-3
-8 -6 -5 -6 6 -1 11 2 17 5 13 3 -3 4 -12 1 -19z m2333 -11 c0 -1 -16 -35 -35
-74 -19 -40 -35 -77 -35 -82 0 -7 70 -12 188 -13 181 -3 186 -4 156 -20 -25
-14 -61 -17 -215 -17 -1118 1 -1390 -2 -1383 -13 5 -9 2 -9 -9 1 -9 7 -17 22
-17 32 0 19 18 19 617 19 l617 -1 43 86 c25 49 49 85 58 85 8 0 15 -1 15 -3z
m-2343 -49 c-3 -8 -6 -5 -6 6 -1 11 2 17 5 13 3 -3 4 -12 1 -19z m3076 -5 c-7
-2 -19 -2 -25 0 -7 3 -2 5 12 5 14 0 19 -2 13 -5z m-208 -13 c-11 -5 -29 -8
-40 -8 -16 0 -15 2 5 8 34 11 60 11 35 0z m252 4 c-3 -3 -12 -4 -19 -1 -8 3
-5 6 6 6 11 1 17 -2 13 -5z m-328 -18 c-12 -10 -152 -75 -142 -65 13 13 124
69 137 69 5 0 7 -2 5 -4z m-2812 -98 c-3 -7 -5 -2 -5 12 0 14 2 19 5 13 2 -7
2 -19 0 -25z m5046 6 c3 -3 3 -12 0 -20 -5 -13 -119 -15 -812 -14 -773 1 -881
5 -897 31 -5 9 1699 13 1709 3z m-2496 -87 c-23 -24 -45 -42 -49 -40 -9 4 65
82 79 82 6 1 -7 -18 -30 -42z m-1507 -24 c-1 -24 -2 -26 -11 -10 -5 9 -7 22
-4 27 10 17 15 11 15 -17z m1097 -20 c-191 -2 -503 -2 -695 0 -191 1 -34 2
348 2 382 0 539 -1 347 -2z m1576 0 c-13 -2 -35 -2 -50 0 -16 2 -5 4 22 4 28
0 40 -2 28 -4z m1010 0 c-171 -2 -455 -2 -630 0 -175 1 -34 2 312 2 347 0 490
-1 318 -2z m-2531 -39 c3 -3 -9 -39 -28 -79 -19 -41 -34 -79 -34 -85 0 -8 40
-11 140 -8 103 2 140 0 140 -9 0 -6 -4 -14 -9 -18 -6 -3 -313 -6 -683 -8
l-673 -2 -3 -27 c-5 -46 -27 -33 -30 17 l-2 45 538 0 537 0 42 90 c39 84 51
99 65 84z m283 -14 c-3 -5 -10 -10 -16 -10 -5 0 -9 5 -9 10 0 6 7 10 16 10 8
0 12 -4 9 -10z m3782 -92 c-2 -13 -4 -3 -4 22 0 25 2 35 4 23 2 -13 2 -33 0
-45z m-3837 -9 c-11 -24 -20 -38 -20 -31 0 19 29 86 35 80 3 -3 -4 -25 -15
-49z m3707 4 c-3 -10 -5 -4 -5 12 0 17 2 24 5 18 2 -7 2 -21 0 -30z m-6160 -5
c-3 -7 -5 -2 -5 12 0 14 2 19 5 13 2 -7 2 -19 0 -25z m6153 -498 c-41 -447
-183 -884 -413 -1274 -57 -96 -174 -276 -186 -286 -4 -3 -22 -25 -40 -48 -72
-92 -169 -200 -275 -304 -43 -43 -74 -78 -69 -78 29 0 326 323 420 459 18 25
39 53 45 61 17 19 68 99 68 106 0 3 10 19 22 37 13 18 24 34 26 37 2 2 8 -2
13 -10 8 -12 9 -10 4 7 -5 20 8 59 24 73 3 3 22 38 41 77 19 40 38 73 43 73 4
0 7 8 7 18 0 9 9 32 20 50 11 18 20 39 20 47 0 8 4 15 10 15 5 0 7 6 4 14 -3
7 2 20 10 29 9 9 16 21 16 27 0 6 4 9 9 6 5 -4 7 2 4 12 -2 11 5 34 17 53 12
19 19 25 15 14 -16 -43 -16 -54 -5 -72 10 -16 11 -16 7 5 -3 12 -1 22 4 22 5
0 9 6 9 13 0 7 20 28 44 46 47 35 61 74 49 132 -3 19 -1 29 6 29 7 0 9 -5 6
-10 -4 -6 -4 -19 0 -28 5 -11 12 4 21 48 7 36 19 75 25 87 6 11 12 41 13 66 0
25 4 43 8 41 10 -6 31 84 44 183 2 17 8 42 13 55 32 78 -19 -214 -63 -367 -8
-27 -20 -68 -26 -90 -80 -283 -239 -618 -418 -880 -450 -659 -1121 -1132
-1872 -1320 -329 -82 -402 -90 -800 -90 -308 1 -359 3 -475 23 -298 50 -528
116 -800 230 -87 36 -327 163 -421 222 -85 54 -299 203 -314 220 -3 3 -34 29
-70 59 -87 72 -321 309 -393 396 -128 157 -337 468 -337 503 0 6 -4 12 -8 12
-11 0 -52 82 -52 103 0 8 -6 17 -14 20 -7 3 -19 26 -27 51 -7 24 -17 42 -21
40 -10 -6 -10 3 -2 34 4 14 12 21 20 18 16 -6 17 -4 8 18 -9 24 -21 19 -33
-11 l-11 -28 4 28 c2 17 -2 31 -9 34 -20 7 -38 59 -33 93 3 16 1 30 -4 30 -4
0 -8 -4 -8 -10 0 -5 -4 -10 -10 -10 -15 0 -12 19 6 37 13 14 17 14 25 2 6 -10
9 -10 9 -1 0 6 9 12 19 12 11 0 21 6 23 12 3 9 9 8 22 -5 28 -28 28 -20 0 28
-14 25 -23 45 -20 45 4 0 2 9 -4 20 -6 11 -13 37 -16 56 -2 20 -7 41 -11 47
-4 6 -8 22 -9 35 -2 13 -7 29 -12 35 -11 13 -66 296 -59 303 4 4 31 -111 43
-181 2 -16 9 -41 14 -55 5 -14 21 -68 35 -120 15 -52 32 -108 40 -125 7 -16
23 -59 35 -95 27 -79 55 -141 127 -285 47 -93 77 -147 176 -310 7 -11 21 -32
32 -46 11 -15 29 -39 39 -53 11 -15 30 -39 43 -54 13 -15 23 -31 23 -36 0 -5
8 -16 18 -25 9 -9 35 -38 56 -66 22 -27 56 -66 75 -87 20 -20 41 -42 47 -50 6
-7 24 -25 40 -39 16 -15 37 -35 46 -45 24 -28 46 -44 58 -44 5 0 10 -5 10 -11
0 -13 12 -24 85 -78 33 -24 65 -49 70 -55 6 -6 23 -19 38 -29 16 -10 36 -24
45 -32 50 -41 113 -85 121 -85 5 0 11 -4 13 -8 2 -5 32 -26 68 -47 36 -21 72
-44 80 -51 52 -40 386 -199 525 -250 345 -127 755 -193 1125 -181 682 22 1288
244 1820 666 198 157 430 402 587 621 331 461 541 1060 569 1625 4 72 8 141 9
155 2 14 4 57 6 95 2 39 5 -9 7 -105 2 -96 -2 -231 -8 -300z m-1081 435 c54
-20 -67 -25 -717 -25 -392 -1 -717 2 -722 5 -30 18 6 25 153 27 252 5 1270 -2
1286 -7z m1228 -167 c-2 -29 -3 -6 -3 52 0 58 1 81 3 53 2 -29 2 -77 0 -105z
m-3880 100 c-3 -8 -6 -5 -6 6 -1 11 2 17 5 13 3 -3 4 -12 1 -19z m-1287 -14
c0 -2 -12 -4 -26 -4 -14 0 -23 4 -20 9 6 8 46 4 46 -5z m957 -1 c-174 -2 -460
-2 -635 0 -174 1 -31 2 318 2 349 0 492 -1 317 -2z m2630 0 c-191 -2 -503 -2
-695 0 -191 1 -34 2 348 2 382 0 539 -1 347 -2z m-2629 -50 c-2 -5 -18 -39
-36 -77 -17 -38 -32 -72 -32 -75 0 -3 87 -5 192 -4 l193 2 -2 48 -2 48 10 -53
c6 -29 17 -56 24 -58 8 -3 11 -12 8 -20 -4 -12 -108 -14 -689 -14 l-684 0 0
-35 0 -34 683 2 682 2 -3 30 -2 30 15 -34 c8 -19 13 -37 9 -40 -7 -7 -1337
-11 -1381 -4 -33 5 -33 5 -33 64 l0 59 453 0 c248 0 459 0 468 0 10 0 29 30
54 85 29 65 42 85 57 85 11 0 18 -3 16 -7z m1588 -11 c-2 -4 -6 -38 -7 -76
l-2 -67 689 -5 c379 -3 699 -7 712 -10 20 -4 21 -6 8 -19 -13 -13 -112 -15
-715 -15 -682 0 -701 -1 -711 -19 -28 -54 -70 -51 693 -49 555 2 701 6 700 16
-2 6 4 12 12 12 16 0 19 -18 7 -37 -6 -9 -183 -12 -728 -11 -397 0 -726 -2
-733 -6 -16 -10 -14 2 14 85 14 41 28 101 31 134 7 74 11 88 24 80 6 -4 8 -10
6 -13z m351 -4 c-3 -8 -6 -5 -6 6 -1 11 2 17 5 13 3 -3 4 -12 1 -19z m-4028
-80 c1 -21 -3 -38 -9 -38 -6 0 -10 25 -9 58 0 41 3 51 9 37 5 -11 9 -37 9 -57z
m2411 57 c0 -8 -4 -15 -10 -15 -5 0 -7 7 -4 15 4 8 8 15 10 15 2 0 4 -7 4 -15z
m1660 -56 c0 -6 -4 -7 -10 -4 -5 3 -10 11 -10 16 0 6 5 7 10 4 6 -3 10 -11 10
-16z m2206 -259 l-15 -95 5 75 c3 41 7 84 9 95 1 11 4 49 6 85 l3 65 3 -65 c2
-36 -3 -108 -11 -160z m-6279 133 c-2 -16 -4 -5 -4 22 0 28 2 40 4 28 2 -13 2
-35 0 -50z m-150 -15 c-3 -8 -6 -5 -6 6 -1 11 2 17 5 13 3 -3 4 -12 1 -19z
m160 -50 c-3 -8 -6 -5 -6 6 -1 11 2 17 5 13 3 -3 4 -12 1 -19z m-150 -25 c-3
-10 -5 -4 -5 12 0 17 2 24 5 18 2 -7 2 -21 0 -30z m2073 -23 c0 -5 -16 -42
-35 -81 -39 -80 -41 -91 -21 -83 11 4 45 68 60 114 2 8 5 4 5 -10 1 -14 -6
-36 -15 -48 -14 -20 -14 -24 0 -38 12 -12 16 -12 16 -2 0 10 2 11 8 0 7 -10
59 -12 243 -9 129 2 254 7 279 10 25 3 55 1 68 -5 16 -8 25 -9 33 -1 14 14 69
-8 119 -46 33 -25 96 -56 165 -80 29 -11 28 -11 -10 -6 -22 3 -437 5 -922 5
l-883 0 0 55 0 55 388 0 389 0 41 90 c26 55 48 90 57 90 8 0 15 -4 15 -10z
m1658 -31 c-13 -23 -40 -61 -60 -84 -44 -49 -46 -55 -18 -48 11 3 20 8 20 12
0 10 157 7 166 -2 5 -4 128 -7 275 -6 l268 1 -10 26 c-6 15 -17 42 -26 60 -9
18 -13 35 -10 38 3 3 20 -25 39 -63 l33 -68 415 -5 c228 -3 409 -9 403 -13 -7
-5 -13 -28 -13 -52 l0 -44 -907 -5 c-500 -2 -933 -7 -963 -10 l-55 -6 52 15
c132 37 275 139 345 246 19 30 39 49 50 49 18 0 18 -2 -4 -41z m-3565 -39 c7
-67 -8 -46 -18 25 -4 32 -3 46 3 40 5 -5 12 -35 15 -65z m2310 63 c-67 -2
-179 -2 -250 0 -70 1 -15 3 122 3 138 0 195 -2 128 -3z m174 -36 c20 -36 20
-38 3 -17 -11 14 -27 33 -37 43 -13 13 -14 17 -2 17 8 0 24 -19 36 -43z m1683
36 c0 -5 -84 -7 -187 -5 -355 4 -388 8 -100 10 158 1 287 -1 287 -5z m-4323
-55 c-3 -8 -6 -5 -6 6 -1 11 2 17 5 13 3 -3 4 -12 1 -19z m3738 -19 c11 -17
-1 -21 -15 -4 -8 9 -8 15 -2 15 6 0 14 -5 17 -11z m-22 -22 c3 -7 -3 -13 -14
-14 -15 -1 -16 1 -6 12 15 18 14 18 20 2z m-1023 -7 c0 -5 -4 -10 -10 -10 -5
0 -10 5 -10 10 0 6 5 10 10 10 6 0 10 -4 10 -10z m1645 -9 c3 -5 1 -12 -5 -16
-5 -3 -10 1 -10 9 0 18 6 21 15 7z m1972 -23 c-3 -8 -6 -5 -6 6 -1 11 2 17 5
13 3 -3 4 -12 1 -19z m-6150 -10 c-3 -8 -6 -5 -6 6 -1 11 2 17 5 13 3 -3 4
-12 1 -19z m-130 -70 c-3 -8 -6 -5 -6 6 -1 11 2 17 5 13 3 -3 4 -12 1 -19z
m6300 0 c-3 -8 -6 -5 -6 6 -1 11 2 17 5 13 3 -3 4 -12 1 -19z m-3034 -92 l39
-13 -48 -7 c-63 -8 -183 -8 -225 1 -30 7 -23 9 51 19 117 16 139 16 183 0z
m-1383 -12 c0 -3 -16 -39 -35 -81 -19 -42 -33 -78 -31 -80 5 -6 56 80 56 95 0
6 9 20 21 31 12 11 18 24 14 30 -4 8 145 11 515 11 424 0 526 -3 548 -14 15
-7 68 -17 117 -21 72 -5 110 -2 192 14 97 20 128 21 635 19 l533 -3 -1 -22 c0
-13 3 -23 8 -23 4 0 20 -25 33 -55 14 -30 34 -59 45 -65 11 -6 140 -10 341
-10 251 0 320 -3 311 -12 -7 -7 -12 -31 -12 -55 l0 -43 -2015 0 -2015 0 0 58
0 57 311 -3 310 -3 42 90 c29 63 47 91 60 91 9 0 17 -3 17 -6z m-1863 -26 c-3
-8 -6 -5 -6 6 -1 11 2 17 5 13 3 -3 4 -12 1 -19z m6185 -110 c-9 -9 -12 -7
-12 12 0 19 3 21 12 12 9 -9 9 -15 0 -24z m-2 -34 c0 -9 -5 -12 -12 -8 -8 5
-9 2 -5 -10 4 -10 3 -15 -3 -11 -20 12 -11 35 18 44 1 1 2 -6 2 -15z m-6103
-46 c-3 -8 -6 -5 -6 6 -1 11 2 17 5 13 3 -3 4 -12 1 -19z m6078 -7 c3 -5 1
-12 -5 -16 -5 -3 -10 1 -10 9 0 18 6 21 15 7z m30 -1 c3 -5 1 -10 -4 -10 -6 0
-11 5 -11 10 0 6 2 10 4 10 3 0 8 -4 11 -10z m-6028 -57 c-16 -16 -17 -15 -17
17 0 32 1 33 17 17 16 -16 16 -18 0 -34z m5983 17 c0 -5 -5 -10 -11 -10 -5 0
-7 5 -4 10 3 6 8 10 11 10 2 0 4 -4 4 -10z m-1523 -150 l42 -90 257 0 c201 0
255 -3 246 -12 -7 -7 -12 -29 -12 -50 l0 -38 -2015 0 -2015 0 0 50 0 50 233 0
233 0 43 90 44 90 1451 0 1451 0 42 -90z m1513 75 c0 -9 -7 -18 -15 -21 -8 -4
-16 -16 -16 -28 -1 -14 -3 -16 -6 -5 -5 20 13 69 27 69 5 0 10 -7 10 -15z m40
-5 c0 -5 -4 -10 -10 -10 -5 0 -10 5 -10 10 0 6 5 10 10 10 6 0 10 -4 10 -10z
m-5992 -17 c-10 -2 -26 -2 -35 0 -10 3 -2 5 17 5 19 0 27 -2 18 -5z m-38 -23
c0 -13 -11 -13 -30 0 -12 8 -11 10 8 10 12 0 22 -4 22 -10z m80 -17 c0 -5 -11
-13 -25 -20 -27 -12 -33 -5 -13 15 13 13 38 16 38 5z m-70 -12 c0 -5 -6 -13
-13 -19 -10 -8 -13 -6 -14 9 -1 10 5 19 13 19 8 0 14 -4 14 -9z m4618 -316
c20 -44 41 -83 47 -87 5 -4 89 -8 185 -8 135 0 171 -3 162 -12 -7 -7 -12 -29
-12 -50 l0 -38 -2015 0 -2015 0 0 50 0 50 153 0 c83 0 157 4 162 8 6 4 28 44
50 90 l39 82 1604 -2 1604 -3 36 -80z m151 -320 l40 -85 100 0 c56 0 103 -4
106 -10 3 -5 2 -10 -4 -10 -5 0 -11 -19 -13 -42 l-3 -43 -2012 -3 -2013 -2 0
55 0 55 90 0 c50 0 90 4 90 9 0 5 16 43 36 85 l36 76 1753 0 1753 0 41 -85z
m-822 -396 c-17 -28 -34 -30 -197 -27 -129 3 -145 5 -148 21 -3 16 9 17 150
17 84 0 159 4 167 9 8 5 20 7 27 4 10 -4 11 -9 1 -24z m-1757 1 c-12 -22 -96
-50 -162 -53 -33 -2 -43 2 -46 16 -2 12 3 17 20 18 13 0 52 8 88 18 36 10 75
19 88 20 20 1 21 -2 12 -19z m594 1 c27 -22 6 -30 -52 -20 -116 22 -219 -29
-245 -119 -17 -58 -32 -56 -31 2 0 55 36 105 96 135 36 19 57 22 129 19 55 -2
92 -8 103 -17z m530 10 c11 -4 20 -15 22 -25 2 -15 -2 -16 -29 -9 -18 4 -59 7
-91 6 -68 -3 -130 -36 -149 -81 -15 -34 -51 -33 -42 1 22 74 96 117 200 116
38 0 79 -4 89 -8z m314 -188 c-2 -50 -6 -67 -20 -74 -15 -8 -18 -5 -18 21 0
17 5 30 13 31 9 0 9 2 -1 6 -6 2 -10 9 -6 14 3 5 6 27 6 49 0 34 3 39 14 29
10 -9 14 -31 12 -76z m-302 -16 c-12 -21 -31 -40 -45 -44 -29 -7 -108 31 -108
53 0 17 -4 17 48 -1 44 -16 44 -16 67 12 49 60 45 58 52 37 5 -12 -1 -33 -14
-57z m-1177 -177 c9 -24 10 -23 11 10 1 58 20 13 20 -47 0 -31 5 -53 11 -53 5
0 8 -4 5 -8 -2 -4 25 -6 62 -4 l67 4 -20 -20 c-18 -19 -35 -21 -173 -24 -152
-3 -152 -3 -152 20 0 19 5 22 43 22 23 0 48 4 55 8 8 6 15 48 19 128 3 65 11
130 16 144 9 21 12 11 18 -65 4 -50 12 -101 18 -115z m663 188 c3 -7 0 -31 -6
-53 -9 -32 -20 -44 -51 -59 -56 -27 -137 -33 -154 -12 -10 11 -10 16 -2 16 7
0 10 4 7 9 -3 4 21 8 53 7 50 -1 64 3 85 23 14 13 28 36 31 52 7 29 29 39 37
17z m1081 -22 c25 -11 37 -23 37 -36 0 -24 1 -24 -43 -5 -24 10 -70 15 -133
15 -100 0 -116 10 -63 38 31 17 150 9 202 -12z m-747 -67 c3 -6 -10 -27 -30
-48 -28 -28 -36 -45 -36 -73 0 -44 10 -52 87 -68 90 -18 173 3 173 46 0 7 10
20 22 29 21 14 23 14 30 -2 3 -10 5 1 3 25 -4 47 -16 68 -46 77 -10 4 -19 10
-19 15 0 7 16 8 63 1 5 0 6 -5 3 -10 -3 -5 2 -29 11 -54 15 -40 15 -49 2 -83
-9 -24 -30 -49 -57 -68 -38 -27 -50 -30 -119 -30 -78 1 -123 15 -166 52 -9 8
-27 20 -40 27 -16 8 -22 19 -21 42 2 39 28 74 79 106 46 29 51 31 61 16z m824
-81 c1 -158 -221 -220 -363 -102 -16 13 -35 24 -43 24 -21 0 -17 37 6 60 22
22 69 27 71 8 1 -7 1 -22 0 -33 -1 -26 23 -58 46 -60 10 -1 31 -7 46 -14 38
-15 62 -14 97 4 35 18 60 52 60 81 0 25 30 41 42 22 6 -11 8 -10 8 0 0 7 5 10
12 6 8 -5 9 2 5 27 -5 24 -4 30 3 19 5 -8 10 -27 10 -42z m-1157 10 c-3 -17
-2 -19 5 -10 17 24 24 -18 7 -44 -37 -57 -134 -106 -235 -119 -30 -3 -63 -9
-72 -11 -14 -4 -18 1 -18 20 0 14 3 26 8 26 37 0 142 25 172 40 20 10 56 42
80 70 46 54 61 62 53 28z m38 -11 c-8 -8 -11 -7 -11 4 0 20 13 34 18 19 3 -7
-1 -17 -7 -23z"/>
<path d="M7805 3670 c3 -5 8 -10 11 -10 2 0 4 5 4 10 0 6 -5 10 -11 10 -5 0
-7 -4 -4 -10z"/>
<path d="M1848 3664 c-3 -5 -8 -21 -12 -36 -6 -26 -4 -28 25 -28 28 0 29 -1
15 -16 -20 -20 -20 -34 0 -34 9 0 18 9 21 20 3 11 10 20 17 20 6 0 5 4 -3 9
-10 6 -12 19 -7 42 4 24 3 30 -4 19 -9 -13 -11 -13 -20 0 -9 13 -10 13 -10 0
0 -12 -2 -12 -9 -1 -5 7 -11 9 -13 5z"/>
<path d="M7766 3648 c-10 -38 -6 -45 9 -18 17 29 18 40 6 40 -5 0 -11 -10 -15
-22z"/>
<path d="M7786 3610 c-9 -22 -16 -46 -16 -53 1 -6 10 10 20 37 11 28 18 51 16
53 -2 2 -11 -14 -20 -37z"/>
<path d="M1924 3628 c3 -7 9 -21 12 -30 4 -10 11 -18 16 -18 5 0 7 6 4 13 -3
6 -9 20 -12 30 -4 9 -11 17 -16 17 -5 0 -7 -6 -4 -12z"/>
<path d="M7738 3573 c7 -3 16 -2 19 1 4 3 -2 6 -13 5 -11 0 -14 -3 -6 -6z"/>
<path d="M1953 3544 c-6 -13 -7 -24 -3 -24 9 0 25 39 18 45 -2 2 -8 -7 -15
-21z"/>
<path d="M7700 3530 c6 -11 16 -20 23 -19 9 0 9 2 0 6 -7 2 -13 11 -13 19 0 8
-5 14 -10 14 -7 0 -7 -6 0 -20z"/>
<path d="M1915 3530 c-3 -5 -1 -10 4 -10 6 0 11 5 11 10 0 6 -2 10 -4 10 -3 0
-8 -4 -11 -10z"/>
<path d="M7726 3484 c-4 -10 -1 -14 6 -12 15 5 23 28 10 28 -5 0 -13 -7 -16
-16z"/>
<path d="M7660 3471 c0 -5 -3 -16 -6 -25 -3 -9 -2 -16 3 -16 5 0 10 11 11 25
1 14 0 25 -3 25 -3 0 -5 -4 -5 -9z"/>
<path d="M7705 3450 c-3 -5 -1 -10 4 -10 6 0 11 5 11 10 0 6 -2 10 -4 10 -3 0
-8 -4 -11 -10z"/>
<path d="M7665 3380 c3 -5 8 -10 11 -10 2 0 4 5 4 10 0 6 -5 10 -11 10 -5 0
-7 -4 -4 -10z"/>
<path d="M6845 2434 c-138 -123 -296 -236 -488 -349 -53 -32 -96 -60 -94 -62
4 -3 75 33 119 60 191 119 311 204 423 300 97 84 101 87 90 87 -6 0 -28 -16
-50 -36z"/>
<path d="M3361 2036 c10 -9 89 -46 89 -41 0 5 -75 45 -86 45 -4 0 -5 -2 -3 -4z"/>
<path d="M6155 1977 c-49 -24 -101 -49 -115 -55 l-25 -12 25 6 c47 11 234 105
208 104 -2 0 -43 -20 -93 -43z"/>
<path d="M3500 1966 c0 -2 7 -7 16 -10 8 -3 12 -2 9 4 -6 10 -25 14 -25 6z"/>
<path d="M3550 1940 c8 -5 20 -10 25 -10 6 0 3 5 -5 10 -8 5 -19 10 -25 10 -5
0 -3 -5 5 -10z"/>
<path d="M3677 1889 c7 -7 15 -10 18 -7 3 3 -2 9 -12 12 -14 6 -15 5 -6 -5z"/>
<path d="M5890 1864 c-30 -12 -64 -25 -75 -28 -10 -3 -17 -8 -14 -10 5 -5 158
50 168 60 11 10 -29 0 -79 -22z"/>
<path d="M3750 1860 c8 -5 20 -10 25 -10 6 0 3 5 -5 10 -8 5 -19 10 -25 10 -5
0 -3 -5 5 -10z"/>
<path d="M3830 1830 c8 -5 22 -9 30 -9 10 0 8 3 -5 9 -27 12 -43 12 -25 0z"/>
<path d="M5758 1813 c7 -3 16 -2 19 1 4 3 -2 6 -13 5 -11 0 -14 -3 -6 -6z"/>
<path d="M3930 1800 c8 -5 22 -9 30 -9 10 0 8 3 -5 9 -27 12 -43 12 -25 0z"/>
<path d="M5718 1803 c7 -3 16 -2 19 1 4 3 -2 6 -13 5 -11 0 -14 -3 -6 -6z"/>
<path d="M5670 1790 c-8 -5 -10 -10 -5 -10 6 0 17 5 25 10 8 5 11 10 5 10 -5
0 -17 -5 -25 -10z"/>
<path d="M4018 1773 c7 -3 16 -2 19 1 4 3 -2 6 -13 5 -11 0 -14 -3 -6 -6z"/>
<path d="M5585 1770 c-25 -11 1 -11 35 0 20 6 21 8 5 8 -11 0 -29 -3 -40 -8z"/>
<path d="M4085 1756 c22 -7 56 -16 75 -19 33 -6 33 -6 -5 7 -22 7 -56 16 -75
19 -33 6 -33 6 5 -7z"/>
<path d="M5510 1750 c-11 -8 -7 -9 15 -4 37 8 45 14 19 14 -10 0 -26 -5 -34
-10z"/>
<path d="M5458 1733 c7 -3 16 -2 19 1 4 3 -2 6 -13 5 -11 0 -14 -3 -6 -6z"/>
<path d="M4233 1723 c9 -2 23 -2 30 0 6 3 -1 5 -18 5 -16 0 -22 -2 -12 -5z"/>
<path d="M5355 1720 l-30 -8 32 -1 c17 0 35 4 38 9 7 11 3 11 -40 0z"/>
<path d="M4288 1713 c6 -2 18 -2 25 0 6 3 1 5 -13 5 -14 0 -19 -2 -12 -5z"/>
<path d="M4348 1703 c7 -3 16 -2 19 1 4 3 -2 6 -13 5 -11 0 -14 -3 -6 -6z"/>
<path d="M5288 1703 c6 -2 18 -2 25 0 6 3 1 5 -13 5 -14 0 -19 -2 -12 -5z"/>
<path d="M4460 1696 c0 -2 7 -7 16 -10 8 -3 12 -2 9 4 -6 10 -25 14 -25 6z"/>
<path d="M5218 1693 c6 -2 18 -2 25 0 6 3 1 5 -13 5 -14 0 -19 -2 -12 -5z"/>
<path d="M4533 1683 c9 -2 25 -2 35 0 9 3 1 5 -18 5 -19 0 -27 -2 -17 -5z"/>
<path d="M5093 1683 c15 -2 37 -2 50 0 12 2 0 4 -28 4 -27 0 -38 -2 -22 -4z"/>
<path d="M4643 1673 c26 -2 67 -2 90 0 23 2 2 3 -48 3 -49 0 -68 -1 -42 -3z"/>
<path d="M4918 1673 c23 -2 61 -2 85 0 23 2 4 4 -43 4 -47 0 -66 -2 -42 -4z"/>
<path d="M2811 4203 c1 -37 1 -37 10 -11 14 37 39 45 39 11 0 -21 3 -23 14
-14 11 9 102 11 348 8 671 -8 1084 -9 1111 -2 17 5 27 3 27 -4 0 -6 7 -11 15
-11 8 0 15 4 15 10 0 5 3 9 8 9 17 -3 32 2 32 9 0 29 -77 32 -843 32 l-777 0
1 -37z m819 17 c0 -7 -133 -9 -382 -8 l-383 3 340 5 c187 3 359 6 383 8 23 1
42 -2 42 -8z m747 -2 c0 -10 -75 -12 -349 -10 -217 1 -348 6 -348 12 0 6 129
10 348 10 272 0 349 -3 349 -12z"/>
<path d="M4421 4187 c-8 -11 -5 -14 19 -14 32 0 40 11 14 21 -21 8 -20 8 -33
-7z"/>
<path d="M5167 4225 c-15 -8 -40 -24 -55 -36 l-27 -22 25 7 c14 4 33 8 43 7 9
0 15 4 12 9 -3 5 -1 11 4 14 5 3 11 0 14 -7 5 -12 236 -12 1185 0 248 3 352 1
352 -6 0 -6 5 -11 11 -11 5 0 8 4 4 9 -3 5 7 12 22 14 16 2 -155 5 -379 6
-224 0 -409 4 -411 9 -3 4 177 6 399 4 261 -2 410 1 422 7 11 7 -238 10 -788
11 -687 0 -809 -2 -833 -15z m748 -5 c4 -7 -112 -10 -354 -10 -218 0 -362 4
-366 10 -3 6 128 9 354 10 234 0 362 -3 366 -10z m38 -27 c-7 -2 -19 -2 -25 0
-7 3 -2 5 12 5 14 0 19 -2 13 -5z"/>
<path d="M4545 4100 c-13 -6 -15 -9 -5 -9 8 0 22 4 30 9 18 12 2 12 -25 0z"/>
<path d="M3793 4093 c130 -2 344 -2 475 0 130 1 23 2 -238 2 -261 0 -368 -1
-237 -2z"/>
<path d="M4988 4093 c7 -3 16 -2 19 1 4 3 -2 6 -13 5 -11 0 -14 -3 -6 -6z"/>
<path d="M5053 4092 c-10 -6 747 -6 947 1 47 2 -144 4 -425 5 -280 1 -515 -2
-522 -6z"/>
<path d="M4578 4083 c6 -2 18 -2 25 0 6 3 1 5 -13 5 -14 0 -19 -2 -12 -5z"/>
<path d="M6115 3960 c3 -5 8 -10 11 -10 2 0 4 5 4 10 0 6 -5 10 -11 10 -5 0
-7 -4 -4 -10z"/>
<path d="M2811 3888 c1 -17 2 -19 6 -6 4 17 112 18 1990 18 1093 0 1989 2
1991 5 3 3 -893 5 -1991 5 l-1997 0 1 -22z"/>
<path d="M3332 3708 c-44 -95 -36 -108 10 -16 21 40 34 76 30 80 -4 4 -22 -25
-40 -64z"/>
<path d="M2840 3573 c0 -8 3521 -5 3529 3 2 2 -791 4 -1762 4 -972 0 -1767 -3
-1767 -7z"/>
<path d="M6400 3570 c0 -12 279 -12 355 0 34 5 -15 8 -152 9 -130 1 -203 -3
-203 -9z"/>
<path d="M3196 3414 c-4 -14 -5 -29 -2 -31 3 -3 8 7 12 21 3 15 4 29 1 32 -2
3 -8 -7 -11 -22z"/>
<path d="M3160 3330 c-6 -12 -9 -24 -7 -27 3 -2 11 5 17 17 6 12 9 24 7 27 -3
2 -11 -5 -17 -17z"/>
<path d="M3060 3119 c0 -5 5 -7 10 -4 6 3 10 8 10 11 0 2 -4 4 -10 4 -5 0 -10
-5 -10 -11z"/>
<path d="M3028 3045 c-9 -25 -15 -45 -13 -45 7 0 36 73 33 82 -2 5 -11 -11
-20 -37z"/>
<path d="M5582 7956 c8 -10 119 -38 124 -33 3 2 -17 10 -43 16 -26 7 -57 15
-68 18 -11 3 -17 2 -13 -1z"/>
<path d="M5721 7916 c2 -2 18 -6 34 -10 22 -5 26 -4 15 4 -14 9 -59 15 -49 6z"/>
<path d="M7960 7671 c0 -7 -4 -9 -10 -6 -14 8 -13 -18 1 -32 6 -6 15 -26 19
-45 l7 -33 11 25 11 25 0 -27 c1 -38 -38 -80 -208 -221 -152 -126 -237 -209
-247 -239 -3 -10 -9 -16 -14 -13 -5 3 -5 17 1 33 l9 27 -19 -25 c-23 -28 -31
-64 -31 -130 0 -68 49 -159 129 -240 54 -54 77 -69 125 -84 103 -31 174 -7
315 106 136 110 176 143 181 149 9 11 97 76 118 88 31 17 47 14 81 -15 29 -24
51 -25 51 -2 0 5 -21 36 -47 68 -27 32 -61 74 -76 94 -26 33 -58 52 -41 24 5
-9 2 -9 -9 1 -14 11 -17 11 -17 0 0 -8 7 -23 15 -33 8 -11 15 -31 15 -45 l1
-26 14 25 14 25 1 -26 c0 -23 -27 -50 -169 -168 -260 -216 -324 -255 -382
-232 -13 5 -19 10 -14 11 6 0 -10 10 -35 22 -70 32 -116 74 -144 130 -45 90
-32 162 43 241 43 47 339 290 376 310 31 17 36 17 64 2 17 -8 31 -20 31 -25 0
-6 9 -10 20 -10 11 0 20 6 20 13 0 6 -43 66 -96 132 -113 141 -114 143 -114
126z"/>
<path d="M1618 7609 c-26 -69 -34 -78 -100 -119 -27 -16 -48 -34 -48 -40 0
-15 32 -12 54 5 25 19 27 19 54 -2 15 -12 38 -68 73 -175 34 -104 56 -158 65
-158 19 0 18 -29 -2 -37 -21 -8 -304 17 -324 28 -22 12 57 10 168 -5 51 -6 95
-9 97 -5 5 7 -151 29 -208 29 -47 0 -102 23 -115 47 -7 13 -6 26 4 43 16 30
18 50 4 50 -6 0 -26 -33 -45 -72 -43 -90 -67 -118 -127 -153 -46 -26 -59 -47
-38 -60 6 -3 17 1 26 9 33 33 80 33 390 -2 l161 -17 49 -39 c104 -83 154 -138
154 -171 0 -18 -8 -37 -20 -48 -25 -21 -26 -37 -2 -37 20 0 215 239 220 271 4
26 -15 24 -23 -2 -4 -11 -21 -29 -38 -40 -38 -23 -48 -24 -41 -4 4 8 2 15 -4
15 -6 0 -55 36 -110 80 -86 68 -102 86 -117 127 -9 26 -21 58 -25 70 -5 11
-30 86 -57 165 -48 144 -56 198 -38 276 12 55 -12 36 -37 -29z"/>
<path d="M950 6692 c0 -19 26 -62 38 -62 21 0 14 -10 -47 -70 -36 -35 -62 -54
-65 -47 -3 7 -3 0 0 -15 4 -18 2 -28 -6 -28 -6 0 -8 5 -4 13 6 9 4 9 -8 -1
-32 -26 -39 -146 -13 -210 35 -81 99 -122 195 -122 67 1 124 31 332 180 38 27
60 35 106 38 57 4 59 3 91 -34 31 -35 33 -41 28 -93 -3 -31 -8 -65 -12 -76 -6
-16 -5 -17 4 -5 9 13 11 13 11 -2 0 -26 -107 -135 -145 -148 -25 -8 -44 -8
-77 1 -39 11 -41 13 -18 19 25 6 25 6 -5 12 -16 4 -31 2 -33 -3 -2 -5 -15 -6
-28 -3 -15 4 -24 2 -24 -6 0 -14 228 -122 249 -117 9 2 14 10 12 18 -14 53
-12 59 37 116 61 71 87 121 100 194 27 145 -73 279 -208 279 -25 0 -25 0 5
-16 38 -20 46 -28 17 -20 -32 10 -108 -18 -172 -64 -211 -152 -286 -192 -327
-175 -12 5 -14 9 -5 12 16 6 16 23 -1 23 -23 0 -66 50 -73 85 -10 53 3 101 38
141 53 60 118 81 203 65 38 -7 53 -7 63 3 17 17 -11 37 -123 89 -93 43 -117
47 -90 17 10 -11 14 -20 9 -20 -5 0 -15 9 -22 20 -12 20 -32 27 -32 12z"/>
<path d="M8535 6660 c3 -5 16 -11 28 -11 12 -1 -4 -5 -35 -10 -32 -4 -69 -15
-82 -24 -30 -20 -70 -72 -80 -103 -12 -37 -18 -18 -8 22 6 20 7 36 3 36 -20 0
-44 -97 -57 -235 -8 -82 -17 -166 -20 -185 -6 -33 -5 -34 10 -15 15 20 15 20
16 0 0 -11 -14 -37 -31 -57 -35 -44 -91 -65 -129 -49 -19 7 -21 10 -6 10 12 1
2 12 -30 34 -80 52 -119 156 -94 248 9 31 28 59 66 97 52 52 65 72 44 72 -6 0
-42 -25 -82 -55 -64 -49 -77 -55 -120 -55 -36 0 -48 -4 -48 -15 0 -8 8 -15 19
-15 26 0 39 -19 47 -70 25 -171 80 -263 181 -305 50 -21 136 -19 181 4 88 45
117 111 132 293 15 190 28 247 62 282 26 25 34 28 76 23 83 -9 129 -90 120
-211 -4 -58 -4 -59 14 -36 21 26 22 24 7 -19 -11 -32 -72 -81 -124 -101 -26
-10 -26 -30 0 -30 23 0 234 104 235 116 0 6 -11 19 -24 29 -31 24 -51 72 -64
159 -12 79 -44 127 -108 163 -39 23 -111 32 -99 13z"/>
<path d="M969 5418 c0 -18 -12 -55 -27 -83 -23 -43 -34 -53 -77 -68 -34 -12
-66 -16 -102 -12 -29 3 -53 3 -53 1 0 -3 27 -33 60 -67 65 -69 62 -54 45 -191
-3 -24 -1 -38 8 -41 6 -2 41 11 77 30 36 18 74 33 85 33 11 0 49 -14 83 -30
35 -17 68 -27 74 -24 9 6 4 114 -8 156 -3 10 17 42 51 82 31 36 54 70 51 75
-3 4 -35 11 -72 15 -37 4 -75 11 -85 17 -10 5 -34 38 -54 74 -20 36 -41 65
-46 65 -5 0 -9 -15 -10 -32z m170 -144 c10 -9 -45 -3 -59 6 -11 7 -5 8 20 4
19 -4 37 -8 39 -10z"/>
<path d="M8630 5393 c0 -15 -13 -50 -28 -78 -37 -69 -94 -99 -174 -91 -32 3
-58 3 -58 0 0 -3 24 -31 52 -61 29 -29 56 -60 60 -68 5 -7 3 -45 -4 -84 -8
-47 -9 -74 -2 -81 6 -6 34 2 79 25 39 19 75 35 81 35 7 0 44 -14 84 -31 89
-37 97 -33 81 47 -18 92 -15 104 39 164 27 30 49 62 47 70 -1 11 -20 17 -64
21 -77 7 -103 24 -143 93 -38 67 -50 76 -50 39z m137 -149 c-3 -3 -12 -4 -19
-1 -8 3 -5 6 6 6 11 1 17 -2 13 -5z m63 -4 c0 -5 -10 -10 -22 -10 -19 0 -20 2
-8 10 19 13 30 13 30 0z"/>
<path d="M920 5371 c-12 -24 -13 -34 -1 -27 9 6 22 46 15 46 -2 0 -8 -9 -14
-19z"/>
<path d="M8571 5329 c-7 -12 -10 -23 -8 -26 3 -3 11 5 17 17 15 28 8 35 -9 9z"/>
<path d="M1581 5134 c0 -11 3 -14 6 -6 3 7 2 16 -1 19 -3 4 -6 -2 -5 -13z"/>
<path d="M9281 4524 c0 -11 3 -14 6 -6 3 7 2 16 -1 19 -3 4 -6 -2 -5 -13z"/>
<path d="M1095 4475 l40 -13 -57 -1 c-131 -2 -244 -46 -324 -126 -28 -28 -59
-67 -69 -88 -32 -67 -38 -42 -10 38 4 11 -2 6 -12 -10 -37 -56 -46 -103 -40
-199 9 -151 64 -243 192 -316 61 -35 95 -39 95 -11 0 12 -15 27 -41 41 -73 37
-108 70 -136 128 -39 80 -39 185 -2 257 56 110 205 170 403 163 100 -3 116 -6
158 -32 26 -15 59 -41 73 -58 37 -43 58 -129 52 -205 -4 -52 -2 -62 9 -52 11
9 11 5 4 -21 -5 -18 -16 -43 -24 -55 -15 -23 -89 -63 -128 -68 -24 -4 -35 -22
-19 -31 13 -8 234 42 262 60 18 11 8 35 -19 45 l-28 10 1 132 c0 122 -2 136
-26 187 -65 137 -223 242 -359 239 l-35 -1 40 -13z"/>
<path d="M8285 4441 l30 -7 -32 -7 c-18 -3 -40 -4 -48 -1 -14 6 -20 -6 -16
-29 1 -5 -5 -36 -13 -70 -21 -94 -34 -160 -57 -292 -11 -66 -23 -135 -26 -154
-5 -28 -3 -33 12 -30 11 3 22 17 27 34 15 58 39 61 233 29 17 -3 73 -11 125
-19 52 -8 147 -23 210 -35 63 -11 120 -20 126 -20 26 0 54 -42 54 -80 0 -28 4
-40 14 -40 21 0 23 6 40 111 14 83 67 381 82 465 6 30 4 32 -67 69 -64 33
-139 54 -139 38 0 -2 24 -26 53 -53 72 -66 80 -96 62 -225 -17 -118 -18 -138
-6 -131 20 13 -3 -36 -24 -50 -19 -12 -37 -12 -141 3 -65 9 -121 18 -123 20
-15 12 20 11 109 -2 57 -8 105 -13 108 -10 8 8 -16 12 -143 30 -66 9 -126 22
-134 30 -11 11 -12 28 -2 97 7 45 19 98 29 115 15 31 64 59 82 48 13 -8 40 6
40 21 0 8 -6 15 -12 16 -7 0 -24 2 -38 4 -14 1 -56 6 -95 12 -38 5 -72 8 -73
7 -2 -2 18 -10 45 -18 26 -8 39 -15 28 -16 -11 0 -46 10 -78 23 -79 33 -90 14
-13 -24 46 -23 50 -46 32 -153 -19 -111 -19 -110 -6 -102 6 4 10 -5 10 -19 0
-33 -32 -42 -97 -28 l-48 10 45 1 c64 3 30 16 -94 36 -114 18 -136 28 -136 56
0 22 23 129 46 214 14 54 49 85 96 85 27 0 66 24 52 32 -5 3 -43 8 -84 11 -41
3 -61 2 -45 -2z m-98 -383 c-3 -8 -6 -5 -6 6 -1 11 2 17 5 13 3 -3 4 -12 1
-19z m143 -29 c11 -7 1 -8 -35 -3 -27 4 -52 8 -54 10 -10 9 76 3 89 -7z m63
-16 c-7 -2 -19 -2 -25 0 -7 3 -2 5 12 5 14 0 19 -2 13 -5z"/>
<path d="M8090 3800 c0 -5 9 -14 20 -20 11 -6 17 -16 14 -25 -5 -11 -2 -13 12
-8 15 5 13 0 -9 -28 -15 -19 -39 -51 -53 -72 -14 -22 -28 -36 -32 -33 -11 12
-43 -68 -53 -139 -34 -217 146 -435 384 -465 126 -16 267 30 348 113 93 96
149 236 149 372 0 117 -6 129 -77 148 -132 35 -167 47 -211 69 -42 21 -47 27
-50 61 -3 34 -22 55 -22 23 0 -7 -6 -19 -13 -25 -8 -6 -19 -30 -26 -53 -7 -24
-24 -73 -38 -111 -14 -38 -22 -75 -18 -85 6 -14 12 -11 38 21 36 42 73 48 149
23 24 -8 76 -24 116 -37 94 -29 100 -41 81 -144 -10 -50 -12 -76 -5 -78 12 -4
-45 -90 -79 -120 -59 -53 -179 -83 -286 -71 -76 8 -77 22 -1 18 63 -4 48 3
-58 26 -134 30 -259 118 -300 212 -41 95 -17 210 58 291 37 39 56 48 142 66
53 11 75 20 75 31 0 9 -11 16 -25 18 -14 2 -52 9 -86 17 -76 19 -111 19 -70 1
25 -11 26 -14 9 -18 -11 -3 -30 3 -42 13 -25 21 -41 24 -41 9z m407 -92 c-2
-13 -4 -5 -4 17 -1 22 1 32 4 23 2 -10 2 -28 0 -40z m-16 -71 c-17 -17 -24 -1
-9 22 11 18 14 19 16 5 2 -9 -1 -21 -7 -27z"/>
<path d="M1295 3778 c17 -11 7 -14 -71 -24 -164 -20 -291 -101 -354 -223 -24
-49 -38 -48 -21 0 17 51 3 47 -19 -5 -45 -99 -41 -206 10 -311 48 -99 115
-159 225 -201 160 -60 352 -15 474 109 141 146 156 354 36 513 -62 83 -191
155 -274 154 -25 -1 -25 -1 -6 -12z m176 -149 c76 -38 124 -129 117 -221 -2
-29 -8 -62 -12 -73 -6 -16 -4 -15 14 5 l21 25 -7 -25 c-9 -32 -46 -90 -70
-111 -106 -90 -337 -168 -451 -152 -42 6 -44 7 -22 15 22 9 21 11 -30 30 -103
39 -184 156 -166 240 20 91 85 162 199 218 157 78 314 97 407 49z"/>
<path d="M537 3323 c-3 -27 -5 -65 -4 -85 1 -21 -2 -40 -8 -42 -5 -3 -4 -5 4
-5 7 -1 25 -13 38 -27 16 -17 28 -23 34 -17 15 15 -1 43 -25 44 -11 0 -15 3
-8 6 6 2 12 9 12 14 0 6 -4 7 -10 4 -13 -8 -13 5 0 25 8 13 10 13 10 -2 0 -9
5 -20 11 -24 23 -14 -11 90 -35 107 -5 4 -6 16 -3 28 3 12 2 21 -3 21 -4 0
-10 -21 -13 -47z"/>
<path d="M9097 3285 c-4 -8 -2 -17 3 -20 6 -4 10 3 10 14 0 25 -6 27 -13 6z"/>
<path d="M9080 3230 c0 -11 6 -23 14 -26 8 -3 12 -16 9 -32 -1 -15 0 -21 3
-14 3 6 10 10 14 7 5 -3 11 -1 15 5 3 5 -1 10 -10 10 -9 0 -14 4 -10 9 3 5 1
12 -5 16 -5 3 -10 15 -10 26 0 10 -4 19 -10 19 -5 0 -10 -9 -10 -20z"/>
<path d="M1680 3229 c0 -5 -4 -7 -10 -4 -13 8 -12 2 4 -59 11 -44 14 -48 24
-30 11 18 11 18 12 -5 0 -33 -54 -80 -152 -129 -46 -23 -119 -65 -163 -94 -97
-65 -286 -178 -295 -178 -4 0 -14 8 -21 17 -12 15 -12 16 6 9 14 -5 8 5 -17
30 -25 25 -41 35 -53 30 -15 -6 -16 -9 -2 -29 8 -12 38 -61 67 -109 49 -82 70
-102 85 -78 3 5 -1 23 -10 39 -28 55 -26 57 230 216 61 37 126 79 146 92 47
31 63 30 56 -3 -3 -18 -1 -22 6 -15 6 6 15 11 19 11 22 0 10 -22 -173 -297
-59 -89 -112 -170 -117 -179 -5 -9 -18 -18 -28 -19 -26 -1 -44 -14 -44 -30 0
-20 20 -24 80 -14 30 5 98 14 150 20 52 5 106 12 120 14 14 3 81 12 150 20 69
8 135 18 147 21 16 4 25 1 29 -10 3 -9 10 -14 14 -11 12 7 20 -9 12 -22 -13
-20 -427 -271 -457 -277 -21 -5 -37 -1 -50 9 -11 9 -15 14 -8 11 26 -14 18 11
-13 37 -19 16 -34 24 -34 17 0 -6 -4 -8 -10 -5 -16 10 -11 -15 9 -43 33 -48
131 -213 131 -222 0 -4 7 -11 15 -14 22 -8 30 19 15 53 -23 56 -15 64 165 176
300 186 455 289 455 304 0 3 -11 23 -25 44 -27 39 -64 51 -61 20 1 -16 -13
-19 -104 -26 -58 -4 -175 -16 -260 -27 -245 -30 -262 -32 -256 -21 3 5 0 11
-6 14 -17 5 8 50 123 219 50 73 97 145 104 159 8 14 37 59 64 99 28 40 51 80
51 88 0 13 -108 192 -116 192 -2 0 -4 -5 -4 -11z"/>
<path d="M7923 3176 c3 -7 -8 -27 -25 -42 -16 -16 -39 -45 -49 -64 -45 -80
-89 -145 -97 -143 -5 1 -9 -3 -8 -10 0 -7 -7 -35 -17 -63 -19 -55 -49 -94 -72
-94 -8 0 -21 -13 -30 -30 -8 -16 -23 -33 -32 -39 -15 -8 -16 -12 -6 -22 11
-10 19 -7 46 19 18 18 41 32 52 32 22 0 143 -65 390 -207 233 -135 247 -148
209 -201 -9 -13 -13 -30 -10 -39 10 -25 29 -2 110 131 115 191 177 290 190
306 7 8 20 31 31 51 l18 36 -59 71 c-32 39 -65 71 -72 71 -8 1 -10 -4 -6 -11
5 -9 2 -9 -9 1 -23 19 -21 7 10 -58 19 -40 27 -73 28 -116 2 -57 -14 -103 -29
-88 -4 4 -4 -1 0 -11 5 -13 4 -17 -4 -12 -7 4 -10 2 -7 -6 2 -7 -17 -44 -43
-83 -36 -53 -53 -71 -73 -73 -21 -2 -27 1 -25 14 1 12 -36 38 -123 89 -69 40
-126 76 -128 82 -6 16 86 160 119 188 22 19 37 24 52 20 33 -11 79 -11 82 0 3
8 -205 135 -221 135 -4 0 -3 -5 1 -11 4 -8 0 -8 -15 0 -32 18 -27 -8 7 -35 22
-18 27 -30 27 -68 0 -25 -3 -46 -8 -46 -4 0 -5 -5 -2 -10 4 -6 -15 -46 -42
-90 -39 -64 -53 -80 -72 -80 -19 0 -22 3 -13 12 14 14 -5 27 -145 107 -51 29
-93 56 -93 61 0 16 131 216 157 238 21 19 34 23 62 18 79 -11 86 -11 86 3 0
15 -108 80 -134 81 -7 0 -11 -6 -8 -14z"/>
<path d="M520 3145 c0 -9 6 -12 15 -9 8 4 12 10 9 15 -8 14 -24 10 -24 -6z"/>
<path d="M554 3115 c-3 -8 -4 -20 -1 -27 3 -7 6 -3 6 9 1 12 7 24 14 26 9 4 9
6 -1 6 -7 1 -15 -6 -18 -14z"/>
<path d="M9047 3100 c-3 -11 -1 -23 4 -26 5 -3 9 6 9 20 0 31 -6 34 -13 6z"/>
<path d="M9080 3075 c0 -8 2 -15 4 -15 2 0 6 7 10 15 3 8 1 15 -4 15 -6 0 -10
-7 -10 -15z"/>
<path d="M9012 3060 c-7 -11 -8 -20 -3 -20 22 0 42 -33 37 -59 -5 -22 -4 -23
4 -8 6 9 9 26 5 36 -3 11 -1 22 5 26 5 3 10 12 10 18 0 8 -3 8 -8 2 -4 -5 -15
-11 -25 -13 -15 -3 -17 1 -12 17 8 26 3 27 -13 1z"/>
<path d="M610 3056 c0 -8 -5 -16 -11 -18 -7 -2 -5 -9 5 -17 14 -12 16 -10 16
18 0 17 -2 31 -5 31 -3 0 -5 -6 -5 -14z"/>
<path d="M640 3025 c0 -30 16 -33 23 -6 3 12 -1 22 -9 25 -10 4 -14 -2 -14
-19z"/>
<path d="M9001 2994 c0 -11 3 -14 6 -6 3 7 2 16 -1 19 -3 4 -6 -2 -5 -13z"/>
<path d="M680 2980 c0 -11 4 -20 9 -20 5 0 7 9 4 20 -3 11 -7 20 -9 20 -2 0
-4 -9 -4 -20z"/>
<path d="M650 2970 c0 -5 5 -10 11 -10 5 0 7 5 4 10 -3 6 -8 10 -11 10 -2 0
-4 -4 -4 -10z"/>
<path d="M9008 2953 c7 -3 16 -2 19 1 4 3 -2 6 -13 5 -11 0 -14 -3 -6 -6z"/>
<path d="M8943 2891 c0 -11 5 -18 9 -15 4 3 5 11 1 19 -7 21 -12 19 -10 -4z"/>
<path d="M7690 2840 c-6 -11 -8 -20 -6 -20 3 0 10 9 16 20 6 11 8 20 6 20 -3
0 -10 -9 -16 -20z"/>
<path d="M8975 2834 c-9 -15 -12 -23 -6 -20 11 7 35 46 28 46 -3 0 -12 -12
-22 -26z"/>
<path d="M810 2689 c0 -5 5 -7 10 -4 6 3 10 8 10 11 0 2 -4 4 -10 4 -5 0 -10
-5 -10 -11z"/>
<path d="M7417 2458 c-21 -29 -37 -58 -37 -64 0 -14 -73 -84 -88 -84 -18 0
-91 -54 -92 -67 0 -19 18 -16 47 7 50 39 67 32 196 -83 40 -35 115 -102 167
-148 179 -158 210 -192 210 -226 0 -21 -7 -37 -21 -47 -20 -14 -19 -36 2 -36
6 0 63 55 127 123 64 67 161 168 216 224 l99 102 -53 93 c-61 107 -61 107 -67
90 -3 -6 -9 -10 -14 -6 -12 7 -11 -9 2 -43 6 -15 15 -62 19 -103 l8 -75 -61
-70 c-105 -120 -156 -160 -173 -134 -3 5 0 9 7 9 7 0 -3 12 -21 28 -19 15 -60
50 -90 78 -30 28 -118 106 -194 173 -203 180 -211 192 -160 258 17 22 23 38
17 44 -6 6 -23 -9 -46 -43z"/>
<path d="M2196 2422 c4 -9 9 -34 12 -55 3 -27 8 -37 18 -33 18 7 17 -14 -2
-39 -16 -21 -336 -356 -394 -413 -54 -52 -82 -64 -120 -50 -19 6 -27 13 -21
18 20 12 -23 42 -48 32 -19 -7 -11 -18 98 -126 106 -105 141 -128 141 -95 0 5
-10 23 -21 39 -14 19 -20 36 -16 52 4 13 49 68 101 123 l96 100 52 -56 c74
-79 116 -107 178 -119 77 -15 139 8 201 71 83 85 91 170 25 273 -46 71 -252
280 -284 289 -19 4 -22 3 -16 -11z m42 -43 c-3 -8 -7 -3 -11 10 -4 17 -3 21 5
13 5 -5 8 -16 6 -23z m126 -179 c19 -22 38 -51 42 -65 7 -28 1 -90 -11 -120
-6 -13 0 -10 18 10 39 45 34 10 -9 -52 -42 -61 -99 -93 -165 -93 -31 0 -40 3
-29 10 17 11 16 12 -37 39 -37 18 -83 67 -83 87 0 12 213 224 226 224 6 0 28
-18 48 -40z"/>
<path d="M6970 2037 c-72 -85 -107 -116 -136 -122 -23 -5 -96 -38 -113 -51 -1
-1 0 -7 4 -13 4 -7 20 -4 46 9 62 32 52 42 294 -265 87 -110 167 -214 178
-232 22 -38 16 -65 -18 -87 -14 -9 -25 -21 -25 -26 0 -21 131 57 275 164 83
62 159 119 171 127 11 8 35 26 53 42 l33 27 -33 83 c-46 118 -48 120 -62 105
-7 -8 -12 -45 -12 -96 0 -83 0 -83 19 -60 l19 23 -7 -30 c-4 -16 -15 -38 -24
-48 -20 -22 -189 -150 -219 -166 -28 -14 -61 -15 -47 -1 7 7 -2 24 -30 53 -49
51 -321 395 -353 446 -31 48 -29 62 13 105 19 20 32 41 29 46 -10 16 -18 11
-55 -33z"/>
<path d="M2570 2044 c0 -3 4 -13 9 -22 6 -12 2 -36 -15 -76 -13 -33 -22 -61
-20 -63 1 -2 17 23 35 56 27 52 30 63 20 85 -11 23 -29 36 -29 20z"/>
<path d="M2600 2042 c0 -6 5 -14 10 -17 6 -3 10 -15 10 -25 0 -32 -59 -145
-108 -206 -54 -67 -146 -212 -187 -294 -33 -65 -45 -54 -15 15 29 68 18 67
-15 -2 -36 -72 -42 -136 -21 -199 20 -58 57 -101 133 -155 98 -68 216 -88 300
-49 66 30 124 97 265 311 114 174 136 201 172 218 22 10 47 21 55 23 9 3 -12
20 -50 43 -35 21 -74 46 -86 55 -17 14 -43 17 -72 11 -1 -1 11 -17 29 -37 31
-36 33 -45 14 -101 -4 -11 4 -7 20 12 25 29 25 28 -4 -24 -47 -82 -210 -330
-250 -381 -43 -55 -74 -81 -114 -97 -36 -13 -144 -17 -111 -3 22 9 22 9 -46
30 -48 14 -115 73 -140 123 -41 79 -7 160 190 455 l106 157 40 -1 c22 -1 50
-5 63 -9 18 -6 22 -4 22 11 -1 13 -25 33 -73 61 -40 23 -87 52 -104 64 -18 11
-33 16 -33 11z"/>
<path d="M6601 1766 c3 -4 26 -10 50 -14 34 -6 19 -8 -61 -8 -87 1 -113 -3
-152 -21 -89 -41 -156 -122 -195 -233 l-12 -35 6 40 c3 22 10 51 15 64 7 19 6
22 -5 13 -7 -6 -24 -43 -36 -82 -34 -103 -26 -187 27 -295 82 -163 209 -248
376 -249 148 -2 267 59 344 175 52 79 65 121 65 224 1 93 -16 149 -75 242 -66
104 -177 173 -293 181 -33 2 -57 1 -54 -2z m35 -75 c84 -38 159 -127 232 -275
33 -67 36 -77 36 -174 1 -84 3 -99 14 -85 15 20 15 13 2 -22 -7 -17 -15 -25
-25 -22 -9 4 -12 1 -9 -7 13 -33 -119 -116 -184 -116 -18 0 -40 4 -50 9 -9 6
-39 20 -66 33 -153 72 -296 330 -272 490 21 141 190 229 322 169z"/>
<path d="M3246 1627 c7 -20 -37 -52 -47 -35 -6 9 -10 6 -14 -7 -3 -11 -16 -39
-27 -63 -31 -62 -11 -77 32 -23 53 65 92 71 193 28 52 -22 56 -35 33 -97 -8
-19 -30 -80 -51 -135 -37 -100 -66 -177 -78 -205 -24 -56 -76 -205 -72 -208 6
-7 36 58 66 145 16 46 33 91 38 101 17 34 53 128 76 198 24 74 64 158 65 137
0 -6 -18 -58 -40 -114 -22 -57 -40 -107 -40 -111 0 -5 -9 -27 -19 -51 -11 -23
-36 -86 -56 -140 -48 -131 -83 -210 -98 -219 -16 -10 -87 -10 -87 0 0 4 -11 8
-25 8 -14 1 -25 -4 -25 -11 0 -14 296 -129 311 -120 17 11 9 35 -14 44 -13 5
-29 17 -37 26 -18 22 -5 70 90 320 108 285 142 365 154 365 23 0 119 -40 138
-57 33 -30 49 -71 43 -107 -5 -22 -2 -36 5 -41 16 -10 25 5 55 95 21 62 23 76
12 88 -12 11 -499 183 -565 199 -17 4 -21 2 -16 -10z"/>
<path d="M3013 1598 c-15 -20 -25 -38 -20 -38 3 0 12 11 21 25 17 26 16 35 -1
13z"/>
<path d="M6060 1527 c0 -18 -5 -38 -12 -45 -17 -17 -77 -15 -84 3 -5 11 -11
12 -24 5 -10 -6 -41 -10 -68 -10 -37 0 -68 -9 -121 -36 -78 -39 -125 -86 -178
-182 -34 -60 -40 -60 -23 -2 l10 35 -20 -25 c-47 -61 -52 -247 -9 -350 44
-107 104 -172 206 -224 178 -90 446 3 527 183 29 65 35 94 22 101 -4 3 -17
-17 -27 -43 -11 -27 -26 -55 -34 -64 -8 -8 -15 -20 -15 -27 0 -7 -12 -24 -27
-38 -68 -63 -159 -99 -245 -97 -24 1 -35 3 -25 6 28 7 19 19 -25 32 -66 20
-134 76 -171 139 -108 187 -112 388 -7 489 48 47 137 77 209 70 73 -6 128 -34
179 -92 39 -45 56 -53 66 -36 4 5 -12 53 -35 108 -22 54 -43 106 -46 116 -9
29 -23 19 -23 -16z"/>
<path d="M3899 1396 c29 -30 33 -39 28 -73 -5 -47 -27 -153 -35 -173 -7 -20
-41 -146 -52 -196 -5 -22 -20 -82 -34 -132 -14 -50 -26 -98 -26 -107 0 -31 17
-5 35 55 10 33 20 58 22 56 8 -7 -40 -151 -56 -170 -13 -15 -26 -17 -79 -13
-44 3 -62 1 -59 -7 3 -10 48 -21 412 -96 83 -17 158 -33 167 -36 20 -6 60 32
89 86 11 19 29 50 41 68 14 23 17 37 10 44 -7 7 -15 2 -25 -18 -8 -16 -35 -50
-59 -76 -43 -46 -46 -48 -101 -48 -39 0 -58 4 -64 15 -5 9 -43 22 -92 32 -45
9 -92 24 -103 33 l-21 17 38 158 39 157 50 -5 c86 -9 154 -28 181 -48 21 -17
25 -29 25 -70 0 -49 16 -65 37 -36 15 20 65 232 61 258 -3 20 -7 16 -27 -28
-30 -69 -49 -85 -90 -77 -21 5 -30 11 -27 20 7 17 -6 18 -23 2 -8 -7 -11 -8
-8 -2 7 12 -54 34 -94 34 -13 0 -33 7 -44 15 -19 15 -18 17 17 158 l35 142 39
-3 c21 -2 83 -14 137 -27 120 -28 148 -49 150 -116 2 -55 27 -65 44 -17 21 58
27 134 12 144 -8 5 -126 32 -263 60 -203 41 -244 47 -226 32 30 -24 9 -23 -40
2 -55 28 -59 25 -21 -14z m22 -263 c-8 -15 -10 -15 -11 -2 0 17 10 32 18 25 2
-3 -1 -13 -7 -23z m-20 -70 c-8 -15 -10 -15 -11 -2 0 17 10 32 18 25 2 -3 -1
-13 -7 -23z m-16 -63 c-4 -12 -9 -19 -12 -17 -3 3 -2 15 2 27 4 12 9 19 12 17
3 -3 2 -15 -2 -27z m-31 -129 c-4 -17 -9 -30 -11 -27 -3 2 -2 19 2 36 9 41 17
33 9 -9z"/>
<path d="M4589 1297 c6 -8 21 -13 32 -10 24 7 22 8 -15 17 -25 6 -28 5 -17 -7z"/>
<path d="M4485 1290 c3 -5 14 -10 23 -10 10 0 28 -7 40 -16 18 -12 22 -25 22
-65 0 -59 -26 -302 -41 -375 -17 -86 -36 -264 -28 -264 4 0 10 7 13 16 4 9 9
14 13 11 10 -11 -18 -66 -38 -72 -10 -3 -41 -7 -69 -7 -32 -1 -50 -6 -50 -14
0 -13 111 -24 270 -27 69 -2 85 1 85 13 0 9 -14 17 -39 21 -21 3 -42 12 -47
20 -23 36 14 321 43 327 44 8 64 -16 162 -198 54 -100 105 -187 112 -195 27
-27 231 -27 237 0 1 5 -20 17 -48 27 -29 10 -61 31 -78 50 -25 30 -175 287
-180 309 -1 6 18 17 43 26 110 37 170 114 170 217 0 106 -72 175 -205 195 -41
6 -93 10 -113 10 l-37 -1 30 -8 c21 -5 0 -8 -66 -9 -63 -1 -111 4 -139 14 -49
17 -94 20 -85 5z m410 -30 c4 -6 -6 -7 -27 -3 -44 8 -48 13 -10 13 17 0 34 -4
37 -10z m-8 -57 c12 -8 32 -35 43 -59 19 -38 21 -52 12 -99 -10 -59 -7 -65 15
-37 13 15 13 15 7 -8 -20 -72 -116 -134 -202 -128 -31 2 -46 7 -44 16 1 6 -4
12 -12 12 -26 0 -28 19 -11 158 22 190 13 174 98 166 40 -4 82 -13 94 -21z"/>
<path d="M4685 1290 c11 -5 29 -9 40 -9 l20 0 -20 9 c-11 5 -29 9 -40 9 l-20
0 20 -9z"/>
<path d="M7529 1182 c-42 -31 -87 -64 -99 -72 -13 -8 -48 -33 -79 -55 -76 -55
-207 -137 -258 -163 -23 -12 -45 -27 -49 -33 -13 -21 218 118 346 209 41 29
92 65 113 80 21 15 44 32 50 37 7 6 25 20 41 33 16 12 25 22 20 22 -5 -1 -43
-27 -85 -58z"/>
<path d="M2190 1166 c0 -2 7 -7 16 -10 8 -3 12 -2 9 4 -6 10 -25 14 -25 6z"/>
<path d="M6942 808 c-41 -22 -72 -42 -69 -44 5 -5 157 75 157 82 0 8 -16 1
-88 -38z"/>
<path d="M6782 724 c-29 -15 -52 -28 -50 -30 5 -4 108 45 108 51 0 7 1 7 -58
-21z"/>
<path d="M2860 726 c0 -2 7 -7 16 -10 8 -3 12 -2 9 4 -6 10 -25 14 -25 6z"/>
<path d="M6670 670 c-19 -11 -30 -19 -25 -19 6 0 26 8 45 19 19 11 31 19 25
19 -5 0 -26 -8 -45 -19z"/>
<path d="M6600 640 c-8 -5 -10 -10 -5 -10 6 0 17 5 25 10 8 5 11 10 5 10 -5 0
-17 -5 -25 -10z"/>
<path d="M6485 590 c-22 -10 -33 -19 -25 -19 8 0 31 8 50 19 45 24 28 24 -25
0z"/>
<path d="M6400 561 c-8 -5 -52 -21 -98 -36 -45 -15 -81 -30 -78 -32 5 -5 146
41 191 63 17 7 23 14 15 13 -8 0 -22 -3 -30 -8z"/>
<path d="M3260 556 c0 -2 7 -7 16 -10 8 -3 12 -2 9 4 -6 10 -25 14 -25 6z"/>
<path d="M3350 520 c8 -5 22 -9 30 -9 10 0 8 3 -5 9 -27 12 -43 12 -25 0z"/>
<path d="M3505 470 c27 -12 43 -12 25 0 -8 5 -22 9 -30 9 -10 0 -8 -3 5 -9z"/>
<path d="M6158 473 c7 -3 16 -2 19 1 4 3 -2 6 -13 5 -11 0 -14 -3 -6 -6z"/>
<path d="M6030 440 c-30 -11 -48 -19 -40 -19 8 0 42 8 75 19 33 10 51 19 40
18 -11 0 -45 -8 -75 -18z"/>
<path d="M3620 435 c19 -7 42 -13 50 -13 8 0 -1 6 -20 13 -19 7 -42 13 -50 13
-8 0 1 -6 20 -13z"/>
<path d="M5948 413 c7 -3 16 -2 19 1 4 3 -2 6 -13 5 -11 0 -14 -3 -6 -6z"/>
<path d="M3760 400 c34 -11 60 -11 35 0 -11 5 -29 8 -40 8 -16 0 -15 -2 5 -8z"/>
<path d="M5858 393 c6 -2 18 -2 25 0 6 3 1 5 -13 5 -14 0 -19 -2 -12 -5z"/>
<path d="M3828 383 c7 -3 16 -2 19 1 4 3 -2 6 -13 5 -11 0 -14 -3 -6 -6z"/>
<path d="M3928 363 c7 -3 16 -2 19 1 4 3 -2 6 -13 5 -11 0 -14 -3 -6 -6z"/>
<path d="M5728 363 c7 -3 16 -2 19 1 4 3 -2 6 -13 5 -11 0 -14 -3 -6 -6z"/>
<path d="M3978 353 c7 -3 16 -2 19 1 4 3 -2 6 -13 5 -11 0 -14 -3 -6 -6z"/>
<path d="M5678 353 c7 -3 16 -2 19 1 4 3 -2 6 -13 5 -11 0 -14 -3 -6 -6z"/>
<path d="M4158 323 c6 -2 18 -2 25 0 6 3 1 5 -13 5 -14 0 -19 -2 -12 -5z"/>
<path d="M5488 323 c6 -2 18 -2 25 0 6 3 1 5 -13 5 -14 0 -19 -2 -12 -5z"/>
<path d="M4213 313 c9 -2 23 -2 30 0 6 3 -1 5 -18 5 -16 0 -22 -2 -12 -5z"/>
<path d="M5423 313 c9 -2 23 -2 30 0 6 3 -1 5 -18 5 -16 0 -22 -2 -12 -5z"/>
<path d="M4288 303 c6 -2 18 -2 25 0 6 3 1 5 -13 5 -14 0 -19 -2 -12 -5z"/>
<path d="M5368 303 c7 -3 16 -2 19 1 4 3 -2 6 -13 5 -11 0 -14 -3 -6 -6z"/>
<path d="M4523 283 c15 -2 37 -2 50 0 12 2 0 4 -28 4 -27 0 -38 -2 -22 -4z"/>
<path d="M5093 283 c9 -2 25 -2 35 0 9 3 1 5 -18 5 -19 0 -27 -2 -17 -5z"/>
<path d="M4713 273 c31 -2 83 -2 115 0 31 2 5 3 -58 3 -63 0 -89 -1 -57 -3z"/>
<path d="M4918 273 c12 -2 32 -2 45 0 12 2 2 4 -23 4 -25 0 -35 -2 -22 -4z"/>
<path d="M5168 263 c6 -2 18 -2 25 0 6 3 1 5 -13 5 -14 0 -19 -2 -12 -5z"/>
<path d="M4550 250 c-11 -7 2 -10 43 -10 36 0 56 4 52 10 -8 13 -75 13 -95 0z"/>
<path d="M4888 253 c6 -2 18 -2 25 0 6 3 1 5 -13 5 -14 0 -19 -2 -12 -5z"/>
<path d="M5988 9293 c7 -3 16 -2 19 1 4 3 -2 6 -13 5 -11 0 -14 -3 -6 -6z"/>
<path d="M6110 9261 c8 -4 29 -11 45 -15 19 -4 25 -3 15 3 -8 4 -28 11 -45 15
-19 4 -25 3 -15 -3z"/>
<path d="M6220 9227 c14 -9 43 -18 65 -21 l40 -6 -45 14 c-25 7 -54 17 -65 20
-12 5 -10 2 5 -7z"/>
<path d="M202 5390 c0 -19 2 -27 5 -17 2 9 2 25 0 35 -3 9 -5 1 -5 -18z"/>
<path d="M192 5305 c0 -16 2 -22 5 -12 2 9 2 23 0 30 -3 6 -5 -1 -5 -18z"/>
<path d="M182 5185 c0 -16 2 -22 5 -12 2 9 2 23 0 30 -3 6 -5 -1 -5 -18z"/>
</g>
</svg>
